<svg version="1.1" viewBox="0.0 0.0 471.5301837270341 477.1758530183727" fill="none" stroke="none" stroke-linecap="square" stroke-miterlimit="10" xmlns:xlink="http://www.w3.org/1999/xlink" xmlns="http://www.w3.org/2000/svg"><clipPath id="p.0"><path d="m0 0l471.53018 0l0 477.17584l-471.53018 0l0 -477.17584z" clip-rule="nonzero"/></clipPath><g clip-path="url(#p.0)"><path fill="#000000" fill-opacity="0.0" d="m0 0l471.53018 0l0 477.17584l-471.53018 0z" fill-rule="evenodd"/><path fill="#9fc5e8" fill-opacity="0.7" d="m57.90584 172.22221l0 0c31.980328 -31.980331 84.42294 -31.388077 117.133865 1.3228302q29.614166 29.614182 59.228348 59.228348q-28.952759 28.952744 -57.905518 57.905502l0 0c-31.980331 31.980347 -84.42294 31.388092 -117.13386 -1.322815l0 0c-32.71091 -32.710907 -33.303165 -85.153534 -1.322834 -117.133865z" fill-rule="evenodd"/><path stroke="#ffffff" stroke-width="12.0" stroke-linejoin="round" stroke-linecap="butt" d="m57.90584 172.22221l0 0c31.980328 -31.980331 84.42294 -31.388077 117.133865 1.3228302q29.614166 29.614182 59.228348 59.228348q-28.952759 28.952744 -57.905518 57.905502l0 0c-31.980331 31.980347 -84.42294 31.388092 -117.13386 -1.322815l0 0c-32.71091 -32.710907 -33.303165 -85.153534 -1.322834 -117.133865z" fill-rule="evenodd"/><path fill="#dd7e6b" fill-opacity="0.7" d="m293.49695 57.90584l0 0c31.980316 31.980328 31.388092 84.42294 -1.3228455 117.133865q-29.614166 29.614166 -59.228333 59.228348q-28.952759 -28.952759 -57.905518 -57.905518l0 0c-31.980331 -31.980331 -31.388077 -84.42294 1.3228302 -117.13386l0 0c32.710922 -32.71091 85.15355 -33.303165 117.133865 -1.322834z" fill-rule="evenodd"/><path stroke="#ffffff" stroke-width="12.0" stroke-linejoin="round" stroke-linecap="butt" d="m293.49695 57.90584l0 0c31.980316 31.980328 31.388092 84.42294 -1.3228455 117.133865q-29.614166 29.614166 -59.228333 59.228348q-28.952759 -28.952759 -57.905518 -57.905518l0 0c-31.980331 -31.980331 -31.388077 -84.42294 1.3228302 -117.13386l0 0c32.710922 -32.71091 85.15355 -33.303165 117.133865 -1.322834z" fill-rule="evenodd"/><path fill="#f9cb9c" fill-opacity="0.7" d="m410.63086 295.36966l0 0c-31.980347 31.980347 -84.42294 31.388092 -117.13385 -1.322815q-29.614197 -29.614197 -59.228363 -59.228363q28.952759 -28.952759 57.905518 -57.905502l0 0c31.980316 -31.980331 84.42294 -31.388077 117.13385 1.3228302l0 0c32.710907 32.710907 33.30316 85.153534 1.3228455 117.13385z" fill-rule="evenodd"/><path stroke="#ffffff" stroke-width="12.0" stroke-linejoin="round" stroke-linecap="butt" d="m410.63086 295.36966l0 0c-31.980347 31.980347 -84.42294 31.388092 -117.13385 -1.322815q-29.614197 -29.614197 -59.228363 -59.228363q28.952759 -28.952759 57.905518 -57.905502l0 0c31.980316 -31.980331 84.42294 -31.388077 117.13385 1.3228302l0 0c32.710907 32.710907 33.30316 85.153534 1.3228455 117.13385z" fill-rule="evenodd"/><path fill="#d9ead3" fill-opacity="0.7" d="m175.03842 410.62955l0 0c-31.980331 -31.980316 -31.388077 -84.42294 1.3228302 -117.13385q29.614182 -29.614166 59.228348 -59.228348q28.952759 28.952744 57.905518 57.905502l0 0c31.980316 31.980347 31.388062 84.42294 -1.3228455 117.13388l0 0c-32.710907 32.710907 -85.15352 33.30316 -117.13385 1.322815z" fill-rule="evenodd"/><path stroke="#ffffff" stroke-width="12.0" stroke-linejoin="round" stroke-linecap="butt" d="m175.03842 410.62955l0 0c-31.980331 -31.980316 -31.388077 -84.42294 1.3228302 -117.13385q29.614182 -29.614166 59.228348 -59.228348q28.952759 28.952744 57.905518 57.905502l0 0c31.980316 31.980347 31.388062 84.42294 -1.3228455 117.13388l0 0c-32.710907 32.710907 -85.15352 33.30316 -117.13385 1.322815z" fill-rule="evenodd"/><path fill="#a2c4c9" fill-opacity="0.7" d="m66.74016 316.15747l0 0c0 -45.22647 37.50232 -81.889755 83.76378 -81.889755q41.881897 0 83.76378 0q0 40.94487 0 81.889755l0 0c0 45.22647 -37.50232 81.88977 -83.76378 81.88977l0 0c-46.26146 0 -83.76378 -36.6633 -83.76378 -81.88977z" fill-rule="evenodd"/><path stroke="#ffffff" stroke-width="12.0" stroke-linejoin="round" stroke-linecap="butt" d="m66.74016 316.15747l0 0c0 -45.22647 37.50232 -81.889755 83.76378 -81.889755q41.881897 0 83.76378 0q0 40.94487 0 81.889755l0 0c0 45.22647 -37.50232 81.88977 -83.76378 81.88977l0 0c-46.26146 0 -83.76378 -36.6633 -83.76378 -81.88977z" fill-rule="evenodd"/><path fill="#ffe599" fill-opacity="0.7" d="m316.1574 401.79523l0 0c-45.22647 0 -81.889755 -37.50232 -81.889755 -83.76376q0 -41.881897 0 -83.76378q40.94487 0 81.889755 0l0 0c45.22647 0 81.88977 37.502304 81.88977 83.76378l0 0c0 46.261444 -36.6633 83.76376 -81.88977 83.76376z" fill-rule="evenodd"/><path stroke="#ffffff" stroke-width="12.0" stroke-linejoin="round" stroke-linecap="butt" d="m316.1574 401.79523l0 0c-45.22647 0 -81.889755 -37.50232 -81.889755 -83.76376q0 -41.881897 0 -83.76378q40.94487 0 81.889755 0l0 0c45.22647 0 81.88977 37.502304 81.88977 83.76378l0 0c0 46.261444 -36.6633 83.76376 -81.88977 83.76376z" fill-rule="evenodd"/><path fill="#ea9999" fill-opacity="0.7" d="m401.79654 152.37665l0 0c0 45.22647 -37.50232 81.88977 -83.763794 81.88977q-41.881866 0 -83.76376 0q0 -40.944885 0 -81.88977l0 0c0 -45.226463 37.50232 -81.889755 83.76376 -81.889755l0 0c46.261475 0 83.763794 36.663292 83.763794 81.889755z" fill-rule="evenodd"/><path stroke="#ffffff" stroke-width="12.0" stroke-linejoin="round" stroke-linecap="butt" d="m401.79654 152.37665l0 0c0 45.22647 -37.50232 81.88977 -83.763794 81.88977q-41.881866 0 -83.76376 0q0 -40.944885 0 -81.88977l0 0c0 -45.226463 37.50232 -81.889755 83.76376 -81.889755l0 0c46.261475 0 83.763794 36.663292 83.763794 81.889755z" fill-rule="evenodd"/><path fill="#b4a7d6" fill-opacity="0.7" d="m152.37796 66.74016l0 0c45.226456 0 81.889755 37.50232 81.889755 83.76378q0 41.881897 0 83.76378q-40.944885 0 -81.889755 0l0 0c-45.22648 0 -81.88977 -37.50232 -81.88977 -83.76378l0 0c0 -46.26146 36.663292 -83.76378 81.88977 -83.76378z" fill-rule="evenodd"/><path stroke="#ffffff" stroke-width="12.0" stroke-linejoin="round" stroke-linecap="butt" d="m152.37796 66.74016l0 0c45.226456 0 81.889755 37.50232 81.889755 83.76378q0 41.881897 0 83.76378q-40.944885 0 -81.889755 0l0 0c-45.22648 0 -81.88977 -37.50232 -81.88977 -83.76378l0 0c0 -46.26146 36.663292 -83.76378 81.88977 -83.76378z" fill-rule="evenodd"/></g></svg>